<svg width="616" height="191" viewBox="0 0 616 191" fill="none" xmlns="http://www.w3.org/2000/svg">
<path d="M334.23 115.933C334.23 116.296 334.317 116.49 334.288 116.593C334.26 116.697 333.943 116.759 333.804 116.759L322.594 116.717L322.591 11.1328L285.172 11.0995L285.176 1.57249H371.501L371.499 11.1132L334.231 11.1018L334.23 115.933H334.23Z" fill="#626262"/>
<path d="M297.563 107.212L297.599 116.837L231.158 116.832L231.129 1.57841L242.852 1.60029L242.864 107.2L297.563 107.212Z" fill="#626262"/>
<path d="M199.003 1.5146H187.209V116.81H199.003V1.5146Z" fill="#626262"/>
<path d="M0.926179 1.57294C0.702839 1.57248 0.422107 1.59938 0.274429 1.57294L0.85781 2.90113L41.7531 116.821H52.6953L84.8776 19.2559L85.4041 18.9086C85.5144 18.8362 85.5763 19.3134 85.5294 19.5322L117.591 116.745L128.738 116.749L169.932 1.60393L157.491 1.56565L123.6 98.6804L123.001 100.932C122.522 100.721 122.224 100.253 122.147 99.6079L90.8882 1.59527L79.5981 1.5579L48.0599 100.417C48.0152 100.63 47.7768 100.949 47.6921 100.851C47.6073 100.754 47.5211 100.561 47.4254 100.288L12.8406 1.59527L0.926179 1.57294Z" fill="#626262"/>
<path d="M615.293 1.71105V116.791L607.739 116.723L588.015 93.3567L584.924 89.6849L582.644 87.0157L567.126 68.6445L539.428 35.8806L528.177 22.5222L527.892 22.1817C527.829 22.1074 527.547 22.3736 527.512 22.4529L527.583 74.3091L527.668 116.743L516.314 116.756C516.163 116.684 515.937 116.574 515.963 116.481L516.073 116.094V2.38107C516.001 2.12856 515.869 1.7548 516.004 1.72108L516.648 1.56018L523.556 1.58616L556.701 40.7982L558.885 43.3948L561.544 46.5571L564.08 49.5198L582.413 71.2275L585.692 75.1117L603.121 95.7159L603.53 96.1576C603.62 96.2542 603.862 95.8294 603.876 95.6936L603.79 80.9227L603.756 2.24706C603.756 2.10258 603.531 1.7384 603.636 1.70148L604.011 1.56884L615.293 1.71059V1.71105Z" fill="#626262"/>
<path d="M462.879 111.554C452.046 117.284 439.818 118.914 427.772 117.984L423.121 117.4L420.298 116.897C413.311 115.651 406.721 112.9 400.751 109.052C388.131 100.914 380.484 87.9866 377.581 73.4312L377.086 70.2717L376.833 69.1531L376.486 65.4762C376.095 61.3303 376.039 57.1571 376.474 53.0212L376.879 49.177L377.22 46.9842L378.379 41.4062C380.352 33.6864 383.747 26.4634 388.704 20.2117C395.964 11.0571 407.039 4.27718 418.339 1.87104L420.497 1.4116L423.107 0.92663L427.156 0.549688L429.816 0.374207L431.89 0L437.509 0.153603L439.172 0.508667L443.642 0.748414L446.634 1.2425L449.181 1.77578C456.936 3.39932 464.108 6.75442 470.375 11.5621L475.205 15.873L479.033 20.0932C483.669 25.9014 486.887 32.5629 488.914 39.712L490.118 44.7649L490.788 48.6305L491.309 53.7227L491.341 64.2533L490.969 68.2666L490.727 70.1436L490.158 73.3897L489.644 75.8045C487.743 84.7404 482.624 95.0341 476.116 101.52L474.181 103.447C470.885 106.732 467.101 109.32 462.878 111.554H462.879ZM462.157 99.3691L464.325 97.5765C472.932 89.5385 477.297 79.3306 478.899 67.7538L479.331 62.8814L479.337 55.6138L478.982 51.1433L478.44 47.7344L477.923 45.1583C476.026 35.6992 470.591 26.0231 463.129 19.7528C457.064 14.6565 449.828 11.4997 441.996 10.326L436.708 9.74078L431.445 9.73623L426.432 10.2495L423.787 10.7075L421.455 11.2499C413.502 13.3142 406.339 17.4314 400.846 23.5454C390.459 35.1067 387.42 50.796 388.855 65.9639C390.202 80.2034 396.596 93.5819 408.771 101.547C415.6 106.015 422.981 108 431.065 108.574L437.076 108.575L442.027 108.03C449.387 106.861 456.366 104.156 462.156 99.3687L462.157 99.3691Z" fill="#626262"/>
<path d="M100.184 181.379L112.805 145.32H117.538L101.566 189.797L97.2779 189.809L85.0873 153.002L85.1101 152.391C85.1155 152.246 84.7194 152.036 84.575 152.102C84.1069 152.316 84.1073 153.034 83.9286 153.575L71.9444 189.822L67.7279 189.834L51.6857 145.33L56.4055 145.311L69.2425 181.807C69.4941 182.522 69.5274 183.214 70.1718 183.671C70.4713 183.476 70.4171 183.013 70.5278 182.668L81.9961 146.826L82.4163 145.308L86.8124 145.316L98.6494 182.308C98.8564 182.955 98.808 183.679 99.6804 183.558C99.7456 182.809 99.8842 182.235 100.184 181.379H100.184Z" fill="#626262"/>
<path d="M492.096 172.936L503.323 189.787L498.06 189.813L485.995 171.319L472.938 171.308L472.943 189.822L468.499 189.804L468.662 188.983L468.648 145.312L486.55 145.321L488.796 145.633C493.645 146.346 498.134 149.308 499.616 154.046C501.923 161.417 498.191 168.708 490.493 170.583L492.096 172.936V172.936ZM491.14 150.413C489.48 149.579 487.627 148.899 485.672 148.896L472.941 148.874L472.941 167.794L485.002 167.786C488.176 167.784 491.275 166.712 493.383 164.378C497.187 160.167 496.178 153.39 491.14 150.413H491.14Z" fill="#626262"/>
<path d="M263.285 178.147L239.304 178.138L234.26 189.801L229.525 189.814L249.145 145.294L253.427 145.313L272.488 188.575L273.065 189.813L268.305 189.809L263.284 178.147H263.285ZM240.891 174.538L261.016 174.559C261.223 174.559 261.671 174.36 261.603 174.204L261.342 173.602L251.872 151.74L251.607 150.844C250.816 150.878 250.87 151.525 250.653 152.025L243.937 167.53L240.891 174.538Z" fill="#626262"/>
<path d="M179.352 168.817L172.839 168.814L165.307 168.813L165.3 186.282L189.091 186.274L189.088 189.81L160.94 189.807L160.94 145.316L188.549 145.312L188.529 148.876L165.306 148.878L165.302 165.281L187.028 165.296L186.846 168.848L179.352 168.817Z" fill="#626262"/>
<path d="M399.767 168.842C399.184 168.798 398.818 168.805 398.363 168.884L398.367 186.281L422.109 186.284L422.099 189.81L393.957 189.808L394.097 188.825V145.986L393.913 145.591C393.867 145.49 394.246 145.313 394.365 145.313H421.552L421.526 148.875L398.362 148.878L398.369 165.284L420.048 165.287C419.879 166.546 419.89 167.581 419.982 168.838L399.767 168.841V168.842Z" fill="#626262"/>
<path d="M557.792 190.147L554.948 189.845C551.253 189.453 548.01 187.857 545.205 185.327L546.991 182.182C549.499 184.48 552.336 185.9 555.69 186.477C561.363 187.454 569.481 186.337 571.031 180.354C571.23 179.587 571.195 178.459 571.101 177.578C570.677 173.607 565.805 171.256 562.097 170.103L554.028 167.596C551.784 166.899 549.751 165.829 548.007 164.298C545.333 161.951 544.465 158.317 545.072 154.853C546.147 148.728 551.386 145.67 557.373 144.992C559.253 144.779 561.246 144.655 563.137 144.989L565.439 145.395C568.716 145.975 571.565 147.522 574.005 149.819L571.877 152.851C569.491 150.63 566.692 149.206 563.515 148.646C559.114 147.87 553.722 148.467 550.947 152.026C549.759 153.55 549.319 155.265 549.549 157.217C549.825 159.552 551.489 161.425 553.6 162.529C557.768 164.711 563.499 165.348 568.566 167.955C570.61 169.007 572.535 170.268 573.869 172.134C577.36 177.015 576.103 183.706 571.228 187.131C566.562 190.409 562.89 189.693 561.696 190.152C560.455 190.628 559.133 190.561 557.791 190.147H557.792Z" fill="#626262"/>
<path d="M329.494 183.331L345.944 145.307L350.659 145.33L331.057 189.793H326.709L307.043 145.325L311.824 145.296L328.219 183.182C328.465 183.749 328.371 184.432 329.26 184.278L329.494 183.332V183.331Z" fill="#626262"/>
</svg>
